<?xml version="1.0" encoding="UTF-8"?>
<svg version="1.1" xmlns="http://www.w3.org/2000/svg" width="1904" height="1904">
<path d="M0 0 C2.45502698 -0.00239299 4.91005324 -0.00566019 7.36507803 -0.0097166 C12.69676017 -0.0165228 18.02838945 -0.01718352 23.36006983 -0.01232711 C31.34187549 -0.00509286 39.32364696 -0.00946754 47.30545174 -0.01600846 C60.91260529 -0.02681967 74.51974499 -0.02817133 88.12690163 -0.02431011 C101.91037413 -0.02043014 115.6938363 -0.02089476 129.47730827 -0.02661991 C130.78472627 -0.02715815 130.78472627 -0.02715815 132.11855676 -0.02770726 C135.66869454 -0.02918222 139.21883231 -0.03068663 142.76897006 -0.03222873 C178.78392295 -0.04785425 214.79886875 -0.05054371 250.81382442 -0.04807267 C255.78824616 -0.04773421 260.7626679 -0.04741211 265.73708963 -0.04710698 C267.21920609 -0.04701542 267.21920609 -0.04701542 268.7312643 -0.046922 C290.63906113 -0.04564952 312.54685699 -0.04825257 334.45465354 -0.05163305 C339.4586364 -0.05240379 344.46261927 -0.05314853 349.46660214 -0.05389806 C351.47494375 -0.05419976 353.48328536 -0.05450164 355.49162697 -0.05480371 C356.48713466 -0.05495338 357.48264236 -0.05510306 358.50831696 -0.05525728 C360.52197413 -0.05556081 362.53563131 -0.05586549 364.54928849 -0.05617132 C421.68011148 -0.06484346 478.81093363 -0.06948891 535.9417572 -0.06522369 C536.99945769 -0.06514564 538.05715818 -0.06506758 539.14691019 -0.06498716 C550.94110512 -0.06411438 562.73530004 -0.06318511 574.52949496 -0.06223653 C575.59431491 -0.06215102 576.65913486 -0.06206551 577.75622209 -0.06197741 C586.60340719 -0.06126666 586.60340719 -0.06126666 590.67485327 -0.06093518 C658.78013505 -0.05539974 726.88540327 -0.06294095 794.9906826 -0.08170605 C812.15088778 -0.08642836 829.31109296 -0.09110892 846.47129822 -0.09554291 C847.52795742 -0.09581623 848.58461661 -0.09608955 849.67329579 -0.09637116 C882.24658701 -0.10474406 914.81987711 -0.10942227 947.3931694 -0.11025047 C948.92743638 -0.11029002 948.92743638 -0.11029002 950.49269865 -0.11033037 C972.9478433 -0.11087119 995.40298786 -0.11049863 1017.85813248 -0.10929066 C1025.89318387 -0.10886504 1033.92823527 -0.10849991 1041.96328667 -0.10816122 C1043.96215407 -0.10807591 1045.96102147 -0.10798698 1047.95988887 -0.1078944 C1079.79132878 -0.10644648 1111.62275946 -0.11356635 1143.45419716 -0.12489836 C1176.41103425 -0.13655503 1209.36785491 -0.13710481 1242.32469209 -0.12505493 C1245.86679542 -0.12380314 1249.40889876 -0.12259965 1252.95100212 -0.12143421 C1253.82027499 -0.12114392 1254.68954786 -0.12085362 1255.58516234 -0.12055453 C1269.32652051 -0.11623607 1283.06785525 -0.12194786 1296.80920974 -0.1318744 C1310.33459709 -0.14143239 1323.85994841 -0.14020871 1337.38533369 -0.12766818 C1345.30529478 -0.12064203 1353.22515205 -0.12169432 1361.14510564 -0.13501656 C1367.04097389 -0.14400559 1372.9367578 -0.13717123 1378.83262128 -0.12442699 C1381.19106319 -0.12171539 1383.54951778 -0.12394129 1385.9079477 -0.13193413 C1405.20291293 -0.19282309 1424.27893489 1.17309867 1443.04585838 5.94197559 C1444.06897118 6.19616261 1445.09208397 6.45034962 1446.14620018 6.71223927 C1489.75660773 17.86776883 1529.14576267 38.98835841 1561.60835838 70.25447559 C1562.26771385 70.88659962 1562.92706932 71.51872364 1563.60640526 72.17000294 C1573.09466144 81.31445038 1581.83456278 90.61181569 1589.60835838 101.25447559 C1590.4664199 102.40552576 1591.32449289 103.55656737 1592.18257713 104.70760059 C1598.22013235 112.8972354 1603.6029314 121.39985835 1608.60835838 130.25447559 C1609.01054588 130.96168751 1609.41273338 131.66889942 1609.82710838 132.397542 C1622.85253248 155.53293395 1631.60137299 180.70409969 1636.92085838 206.69197559 C1637.06821434 207.41086964 1637.2155703 208.12976368 1637.36739159 208.87044239 C1640.46032672 225.14323116 1640.89639055 241.13761671 1640.86283398 257.64611721 C1640.86522697 260.10114419 1640.86849417 262.55617045 1640.87255058 265.01119524 C1640.87935678 270.34287738 1640.8800175 275.67450666 1640.87516109 281.00618704 C1640.86792684 288.98799271 1640.87230152 296.96976417 1640.87884244 304.95156895 C1640.88965365 318.5587225 1640.89100531 332.1658622 1640.88714409 345.77301884 C1640.88326411 359.55649134 1640.88372873 373.33995351 1640.88945389 387.12342548 C1640.88981271 387.99503748 1640.89017154 388.86664948 1640.89054124 389.76467397 C1640.8920162 393.31481175 1640.8935206 396.86494952 1640.8950627 400.41508727 C1640.91068822 436.43004016 1640.91337768 472.44498596 1640.91090664 508.45994163 C1640.91056819 513.43436337 1640.91024609 518.40878511 1640.90994096 523.38320684 C1640.90984939 524.8653233 1640.90984939 524.8653233 1640.90975598 526.37738151 C1640.90848349 548.28517834 1640.91108655 570.19297421 1640.91446702 592.10077075 C1640.91523777 597.10475361 1640.9159825 602.10873648 1640.91673204 607.11271935 C1640.91703373 609.12106096 1640.91733561 611.12940257 1640.91763768 613.13774418 C1640.91778736 614.13325187 1640.91793704 615.12875957 1640.91809126 616.15443417 C1640.91839479 618.16809134 1640.91869947 620.18174852 1640.9190053 622.1954057 C1640.92767744 679.3262287 1640.93232289 736.45705084 1640.92805767 793.58787441 C1640.92797961 794.6455749 1640.92790156 795.70327539 1640.92782113 796.7930274 C1640.92694835 808.58722233 1640.92601909 820.38141725 1640.9250705 832.17561217 C1640.92498499 833.24043212 1640.92489948 834.30525207 1640.92481138 835.4023393 C1640.92410063 844.24952437 1640.92410063 844.24952437 1640.92376916 848.32097048 C1640.91823372 916.42625226 1640.92577492 984.53152048 1640.94454002 1052.63679981 C1640.94926234 1069.79700499 1640.95394289 1086.95721017 1640.95837688 1104.11741543 C1640.95865021 1105.17407463 1640.95892353 1106.23073382 1640.95920513 1107.319413 C1640.96757803 1139.89270422 1640.97225624 1172.46599432 1640.97308445 1205.03928661 C1640.97311082 1206.06213127 1640.97313718 1207.08497592 1640.97316435 1208.13881587 C1640.97370516 1230.59396051 1640.9733326 1253.04910507 1640.97212463 1275.50424969 C1640.97169902 1283.53930108 1640.97133389 1291.57435248 1640.97099519 1299.60940388 C1640.97090989 1301.60827128 1640.97082095 1303.60713868 1640.97072837 1305.60600608 C1640.96928046 1337.43744599 1640.97640033 1369.26887667 1640.98773233 1401.10031437 C1640.99938901 1434.05715146 1640.99993879 1467.01397212 1640.98788891 1499.9708093 C1640.98663712 1503.51291263 1640.98543363 1507.05501597 1640.98426819 1510.59711933 C1640.98397789 1511.4663922 1640.9836876 1512.33566507 1640.98338851 1513.23127955 C1640.97907005 1526.97263772 1640.98478184 1540.71397246 1640.99470838 1554.45532695 C1641.00426637 1567.9807143 1641.00304269 1581.50606562 1640.99050216 1595.0314509 C1640.98347601 1602.95141199 1640.9845283 1610.87126926 1640.99785054 1618.79122285 C1641.00683957 1624.6870911 1641.0000052 1630.58287501 1640.98726096 1636.47873849 C1640.98454936 1638.8371804 1640.98677527 1641.19563499 1640.99476811 1643.55406491 C1641.05565706 1662.84903014 1639.68973531 1681.9250521 1634.92085838 1700.69197559 C1634.66667137 1701.71508839 1634.41248436 1702.73820118 1634.15059471 1703.79231739 C1622.99506515 1747.40272494 1601.87447557 1786.79187988 1570.60835838 1819.25447559 C1569.97623436 1819.91383106 1569.34411034 1820.57318653 1568.69283104 1821.25252247 C1559.5483836 1830.74077865 1550.25101829 1839.48067999 1539.60835838 1847.25447559 C1538.45730822 1848.11253711 1537.30626661 1848.9706101 1536.15523338 1849.82869434 C1527.96559857 1855.86624956 1519.46297563 1861.24904861 1510.60835838 1866.25447559 C1509.90114647 1866.65666309 1509.19393456 1867.05885059 1508.46529198 1867.47322559 C1485.32990003 1880.4986497 1460.15873429 1889.2474902 1434.17085838 1894.56697559 C1433.45196434 1894.71433155 1432.7330703 1894.86168751 1431.99239159 1895.0135088 C1415.71960281 1898.10644393 1399.72521727 1898.54250776 1383.21671677 1898.50895119 C1380.76168979 1898.51134418 1378.30666353 1898.51461138 1375.85163873 1898.51866779 C1370.5199566 1898.52547399 1365.18832732 1898.52613471 1359.85664694 1898.5212783 C1351.87484127 1898.51404405 1343.89306981 1898.51841873 1335.91126503 1898.52495965 C1322.30411147 1898.53577086 1308.69697178 1898.53712252 1295.08981514 1898.5332613 C1281.30634264 1898.52938132 1267.52288046 1898.52984594 1253.73940849 1898.5355711 C1252.86779649 1898.53592992 1251.99618449 1898.53628875 1251.09816001 1898.53665845 C1247.54802223 1898.53813341 1243.99788446 1898.53963781 1240.4477467 1898.54117992 C1204.43279381 1898.55680543 1168.41784802 1898.55949489 1132.40289235 1898.55702385 C1127.42847061 1898.5566854 1122.45404887 1898.5563633 1117.47962713 1898.55605817 C1116.49154949 1898.55599712 1115.50347185 1898.55593608 1114.48545246 1898.55587319 C1092.57765563 1898.5546007 1070.66985977 1898.55720376 1048.76206323 1898.56058424 C1043.75808036 1898.56135498 1038.75409749 1898.56209971 1033.75011463 1898.56284925 C1031.74177302 1898.56315094 1029.73343141 1898.56345282 1027.7250898 1898.56375489 C1026.23182825 1898.56397941 1026.23182825 1898.56397941 1024.70839981 1898.56420847 C1022.69474263 1898.564512 1020.68108546 1898.56481668 1018.66742828 1898.56512251 C961.53660528 1898.57379465 904.40578314 1898.5784401 847.27495956 1898.57417488 C846.21725908 1898.57409682 845.15955859 1898.57401877 844.06980657 1898.57393835 C832.27561165 1898.57306556 820.48141673 1898.5721363 808.68722181 1898.57118771 C807.62240186 1898.5711022 806.5575819 1898.57101669 805.46049468 1898.57092859 C796.61330961 1898.57021784 796.61330961 1898.57021784 792.5418635 1898.56988637 C724.43658172 1898.56435093 656.3313135 1898.57189213 588.22603416 1898.59065723 C571.06582899 1898.59537955 553.9056238 1898.6000601 536.74541855 1898.60449409 C535.68875935 1898.60476742 534.63210015 1898.60504074 533.54342098 1898.60532234 C500.97012975 1898.61369524 468.39683966 1898.61837345 435.82354736 1898.61920166 C434.28928038 1898.61924121 434.28928038 1898.61924121 432.72401811 1898.61928156 C410.26887346 1898.61982237 387.81372891 1898.61944981 365.35858429 1898.61824184 C357.32353289 1898.61781623 349.2884815 1898.6174511 341.2534301 1898.6171124 C339.2545627 1898.6170271 337.2556953 1898.61693817 335.2568279 1898.61684558 C303.42538799 1898.61539767 271.59395731 1898.62251754 239.76251961 1898.63384954 C206.80568251 1898.64550622 173.84886186 1898.646056 140.89202468 1898.63400612 C137.34992135 1898.63275433 133.80781801 1898.63155084 130.26571465 1898.6303854 C129.39644177 1898.6300951 128.5271689 1898.62980481 127.63155443 1898.62950572 C113.89019626 1898.62518726 100.14886152 1898.63089905 86.40750703 1898.64082559 C72.88211968 1898.65038358 59.35676835 1898.6491599 45.83138308 1898.63661937 C37.91142198 1898.62959322 29.99156472 1898.63064551 22.07161113 1898.64396775 C16.17574288 1898.65295678 10.27995897 1898.64612241 4.38409548 1898.63337817 C2.02565358 1898.63066657 -0.33280101 1898.63289248 -2.69123093 1898.64088532 C-21.98619617 1898.70177427 -41.06221812 1897.33585252 -59.82914162 1892.56697559 C-60.85225441 1892.31278858 -61.8753672 1892.05860157 -62.92948341 1891.79671192 C-106.53989096 1880.64118236 -145.9290459 1859.52059278 -178.39164162 1828.25447559 C-179.05099709 1827.62235157 -179.71035255 1826.99022755 -180.38968849 1826.33894825 C-189.87794467 1817.19450081 -198.61784602 1807.8971355 -206.39164162 1797.25447559 C-207.24970313 1796.10342543 -208.10777613 1794.95238382 -208.96586037 1793.80135059 C-215.00341558 1785.61171578 -220.38621463 1777.10909284 -225.39164162 1768.25447559 C-225.99492287 1767.19365772 -225.99492287 1767.19365772 -226.61039162 1766.11140919 C-239.63581572 1742.97601724 -248.38465623 1717.8048515 -253.70414162 1691.81697559 C-253.85149757 1691.09808155 -253.99885353 1690.37918751 -254.15067482 1689.6385088 C-257.24360995 1673.36572002 -257.67967378 1657.37133448 -257.64611721 1640.86283398 C-257.6485102 1638.407807 -257.6517774 1635.95278074 -257.65583381 1633.49775594 C-257.66264001 1628.16607381 -257.66330073 1622.83444453 -257.65844432 1617.50276415 C-257.65121007 1609.52095848 -257.65558475 1601.53918702 -257.66212567 1593.55738224 C-257.67293688 1579.95022868 -257.67428854 1566.34308899 -257.67042732 1552.73593235 C-257.66654735 1538.95245985 -257.66701197 1525.16899767 -257.67273712 1511.3855257 C-257.67309595 1510.5139137 -257.67345477 1509.6423017 -257.67382447 1508.74427722 C-257.67529944 1505.19413944 -257.67680384 1501.64400167 -257.67834594 1498.09386391 C-257.69397146 1462.07891103 -257.69666092 1426.06396523 -257.69418988 1390.04900956 C-257.69385142 1385.07458782 -257.69352932 1380.10016608 -257.69322419 1375.12574434 C-257.69316315 1374.1376667 -257.6931021 1373.14958906 -257.69303921 1372.13156968 C-257.69176673 1350.22377284 -257.69436978 1328.31597698 -257.69775026 1306.40818044 C-257.698521 1301.40419757 -257.69926574 1296.40021471 -257.70001527 1291.39623184 C-257.70031697 1289.38789023 -257.70061885 1287.37954862 -257.70092092 1285.37120701 C-257.7010706 1284.37569931 -257.70122028 1283.38019162 -257.70137449 1282.35451702 C-257.70167802 1280.34085984 -257.7019827 1278.32720267 -257.70228854 1276.31354549 C-257.71096068 1219.18272249 -257.71560612 1162.05190035 -257.7113409 1104.92107677 C-257.71126285 1103.86337629 -257.71118479 1102.8056758 -257.71110437 1101.71592379 C-257.71023159 1089.92172886 -257.70930232 1078.12753394 -257.70835374 1066.33333902 C-257.70826823 1065.26851907 -257.70818272 1064.20369911 -257.70809462 1063.10661189 C-257.70738387 1054.25942679 -257.70738387 1054.25942679 -257.70705239 1050.18798071 C-257.70151695 982.08269893 -257.70905816 913.97743071 -257.72782326 845.87215137 C-257.73254557 828.7119462 -257.73722613 811.55174101 -257.74166012 794.39153576 C-257.74193344 793.33487656 -257.74220676 792.27821736 -257.74248837 791.18953819 C-257.75086127 758.61624696 -257.75553948 726.04295687 -257.75636768 693.46966457 C-257.75639405 692.44681992 -257.75642042 691.42397527 -257.75644758 690.37013532 C-257.7569884 667.91499067 -257.75661584 645.45984612 -257.75540787 623.0047015 C-257.75498225 614.9696501 -257.75461712 606.93459871 -257.75427843 598.89954731 C-257.75419312 596.90067991 -257.75410419 594.90181251 -257.75401161 592.90294511 C-257.75256369 561.0715052 -257.75968356 529.24007452 -257.77101557 497.40863682 C-257.78267224 464.45179972 -257.78322202 431.49497907 -257.77117214 398.53814189 C-257.76992035 394.99603856 -257.76871686 391.45393522 -257.76755142 387.91183186 C-257.76726113 387.04255898 -257.76697083 386.17328611 -257.76667174 385.27767164 C-257.76235328 371.53631347 -257.76806507 357.79497873 -257.77799161 344.05362424 C-257.7875496 330.52823689 -257.78632592 317.00288556 -257.77378539 303.47750029 C-257.76675924 295.55753919 -257.76781153 287.63768193 -257.78113377 279.71772834 C-257.79012281 273.82186009 -257.78328844 267.92607618 -257.7705442 262.03021269 C-257.7678326 259.67177079 -257.7700585 257.3133162 -257.77805134 254.95488628 C-257.8389403 235.65992104 -256.47301854 216.58389909 -251.70414162 197.81697559 C-251.44995461 196.7938628 -251.19576759 195.77075001 -250.93387794 194.7166338 C-239.77834838 151.10622625 -218.6577588 111.71707131 -187.39164162 79.25447559 C-186.75951759 78.59512012 -186.12739357 77.93576466 -185.47611427 77.25642872 C-176.33166683 67.76817254 -167.03430152 59.02827119 -156.39164162 51.25447559 C-155.24059145 50.39641408 -154.08954984 49.53834108 -152.93851662 48.68025684 C-144.74888181 42.64270163 -136.24625886 37.25990258 -127.39164162 32.25447559 C-126.6844297 31.85228809 -125.97721779 31.45010059 -125.24857521 31.03572559 C-102.11318326 18.01030149 -76.94201752 9.26146098 -50.95414162 3.94197559 C-50.23524757 3.79461964 -49.51635353 3.64726368 -48.77567482 3.49544239 C-32.50288605 0.40250726 -16.5085005 -0.03355657 0 0 Z " fill="#020202" transform="translate(260.3916416168213,2.7455244064331055)"/>
<path d="M0 0 C2.45502698 -0.00239299 4.91005324 -0.00566019 7.36507803 -0.0097166 C12.69676017 -0.0165228 18.02838945 -0.01718352 23.36006983 -0.01232711 C31.34187549 -0.00509286 39.32364696 -0.00946754 47.30545174 -0.01600846 C60.91260529 -0.02681967 74.51974499 -0.02817133 88.12690163 -0.02431011 C101.91037413 -0.02043014 115.6938363 -0.02089476 129.47730827 -0.02661991 C130.78472627 -0.02715815 130.78472627 -0.02715815 132.11855676 -0.02770726 C135.66869454 -0.02918222 139.21883231 -0.03068663 142.76897006 -0.03222873 C178.78392295 -0.04785425 214.79886875 -0.05054371 250.81382442 -0.04807267 C255.78824616 -0.04773421 260.7626679 -0.04741211 265.73708963 -0.04710698 C267.21920609 -0.04701542 267.21920609 -0.04701542 268.7312643 -0.046922 C290.63906113 -0.04564952 312.54685699 -0.04825257 334.45465354 -0.05163305 C339.4586364 -0.05240379 344.46261927 -0.05314853 349.46660214 -0.05389806 C351.47494375 -0.05419976 353.48328536 -0.05450164 355.49162697 -0.05480371 C356.48713466 -0.05495338 357.48264236 -0.05510306 358.50831696 -0.05525728 C360.52197413 -0.05556081 362.53563131 -0.05586549 364.54928849 -0.05617132 C421.68011148 -0.06484346 478.81093363 -0.06948891 535.9417572 -0.06522369 C536.99945769 -0.06514564 538.05715818 -0.06506758 539.14691019 -0.06498716 C550.94110512 -0.06411438 562.73530004 -0.06318511 574.52949496 -0.06223653 C575.59431491 -0.06215102 576.65913486 -0.06206551 577.75622209 -0.06197741 C586.60340719 -0.06126666 586.60340719 -0.06126666 590.67485327 -0.06093518 C658.78013505 -0.05539974 726.88540327 -0.06294095 794.9906826 -0.08170605 C812.15088778 -0.08642836 829.31109296 -0.09110892 846.47129822 -0.09554291 C847.52795742 -0.09581623 848.58461661 -0.09608955 849.67329579 -0.09637116 C882.24658701 -0.10474406 914.81987711 -0.10942227 947.3931694 -0.11025047 C948.92743638 -0.11029002 948.92743638 -0.11029002 950.49269865 -0.11033037 C972.9478433 -0.11087119 995.40298786 -0.11049863 1017.85813248 -0.10929066 C1025.89318387 -0.10886504 1033.92823527 -0.10849991 1041.96328667 -0.10816122 C1043.96215407 -0.10807591 1045.96102147 -0.10798698 1047.95988887 -0.1078944 C1079.79132878 -0.10644648 1111.62275946 -0.11356635 1143.45419716 -0.12489836 C1176.41103425 -0.13655503 1209.36785491 -0.13710481 1242.32469209 -0.12505493 C1245.86679542 -0.12380314 1249.40889876 -0.12259965 1252.95100212 -0.12143421 C1253.82027499 -0.12114392 1254.68954786 -0.12085362 1255.58516234 -0.12055453 C1269.32652051 -0.11623607 1283.06785525 -0.12194786 1296.80920974 -0.1318744 C1310.33459709 -0.14143239 1323.85994841 -0.14020871 1337.38533369 -0.12766818 C1345.30529478 -0.12064203 1353.22515205 -0.12169432 1361.14510564 -0.13501656 C1367.04097389 -0.14400559 1372.9367578 -0.13717123 1378.83262128 -0.12442699 C1381.19106319 -0.12171539 1383.54951778 -0.12394129 1385.9079477 -0.13193413 C1405.20291293 -0.19282309 1424.27893489 1.17309867 1443.04585838 5.94197559 C1444.06897118 6.19616261 1445.09208397 6.45034962 1446.14620018 6.71223927 C1489.75660773 17.86776883 1529.14576267 38.98835841 1561.60835838 70.25447559 C1562.26771385 70.88659962 1562.92706932 71.51872364 1563.60640526 72.17000294 C1573.09466144 81.31445038 1581.83456278 90.61181569 1589.60835838 101.25447559 C1590.4664199 102.40552576 1591.32449289 103.55656737 1592.18257713 104.70760059 C1598.22013235 112.8972354 1603.6029314 121.39985835 1608.60835838 130.25447559 C1609.01054588 130.96168751 1609.41273338 131.66889942 1609.82710838 132.397542 C1622.85253248 155.53293395 1631.60137299 180.70409969 1636.92085838 206.69197559 C1637.06821434 207.41086964 1637.2155703 208.12976368 1637.36739159 208.87044239 C1640.46032672 225.14323116 1640.89639055 241.13761671 1640.86283398 257.64611721 C1640.86522697 260.10114419 1640.86849417 262.55617045 1640.87255058 265.01119524 C1640.87935678 270.34287738 1640.8800175 275.67450666 1640.87516109 281.00618704 C1640.86792684 288.98799271 1640.87230152 296.96976417 1640.87884244 304.95156895 C1640.88965365 318.5587225 1640.89100531 332.1658622 1640.88714409 345.77301884 C1640.88326411 359.55649134 1640.88372873 373.33995351 1640.88945389 387.12342548 C1640.88981271 387.99503748 1640.89017154 388.86664948 1640.89054124 389.76467397 C1640.8920162 393.31481175 1640.8935206 396.86494952 1640.8950627 400.41508727 C1640.91068822 436.43004016 1640.91337768 472.44498596 1640.91090664 508.45994163 C1640.91056819 513.43436337 1640.91024609 518.40878511 1640.90994096 523.38320684 C1640.90984939 524.8653233 1640.90984939 524.8653233 1640.90975598 526.37738151 C1640.90848349 548.28517834 1640.91108655 570.19297421 1640.91446702 592.10077075 C1640.91523777 597.10475361 1640.9159825 602.10873648 1640.91673204 607.11271935 C1640.91703373 609.12106096 1640.91733561 611.12940257 1640.91763768 613.13774418 C1640.91778736 614.13325187 1640.91793704 615.12875957 1640.91809126 616.15443417 C1640.91839479 618.16809134 1640.91869947 620.18174852 1640.9190053 622.1954057 C1640.92767744 679.3262287 1640.93232289 736.45705084 1640.92805767 793.58787441 C1640.92797961 794.6455749 1640.92790156 795.70327539 1640.92782113 796.7930274 C1640.92694835 808.58722233 1640.92601909 820.38141725 1640.9250705 832.17561217 C1640.92498499 833.24043212 1640.92489948 834.30525207 1640.92481138 835.4023393 C1640.92410063 844.24952437 1640.92410063 844.24952437 1640.92376916 848.32097048 C1640.91823372 916.42625226 1640.92577492 984.53152048 1640.94454002 1052.63679981 C1640.94926234 1069.79700499 1640.95394289 1086.95721017 1640.95837688 1104.11741543 C1640.95865021 1105.17407463 1640.95892353 1106.23073382 1640.95920513 1107.319413 C1640.96757803 1139.89270422 1640.97225624 1172.46599432 1640.97308445 1205.03928661 C1640.97311082 1206.06213127 1640.97313718 1207.08497592 1640.97316435 1208.13881587 C1640.97370516 1230.59396051 1640.9733326 1253.04910507 1640.97212463 1275.50424969 C1640.97169902 1283.53930108 1640.97133389 1291.57435248 1640.97099519 1299.60940388 C1640.97090989 1301.60827128 1640.97082095 1303.60713868 1640.97072837 1305.60600608 C1640.96928046 1337.43744599 1640.97640033 1369.26887667 1640.98773233 1401.10031437 C1640.99938901 1434.05715146 1640.99993879 1467.01397212 1640.98788891 1499.9708093 C1640.98663712 1503.51291263 1640.98543363 1507.05501597 1640.98426819 1510.59711933 C1640.98397789 1511.4663922 1640.9836876 1512.33566507 1640.98338851 1513.23127955 C1640.97907005 1526.97263772 1640.98478184 1540.71397246 1640.99470838 1554.45532695 C1641.00426637 1567.9807143 1641.00304269 1581.50606562 1640.99050216 1595.0314509 C1640.98347601 1602.95141199 1640.9845283 1610.87126926 1640.99785054 1618.79122285 C1641.00683957 1624.6870911 1641.0000052 1630.58287501 1640.98726096 1636.47873849 C1640.98454936 1638.8371804 1640.98677527 1641.19563499 1640.99476811 1643.55406491 C1641.05565706 1662.84903014 1639.68973531 1681.9250521 1634.92085838 1700.69197559 C1634.66667137 1701.71508839 1634.41248436 1702.73820118 1634.15059471 1703.79231739 C1622.99506515 1747.40272494 1601.87447557 1786.79187988 1570.60835838 1819.25447559 C1569.97623436 1819.91383106 1569.34411034 1820.57318653 1568.69283104 1821.25252247 C1559.5483836 1830.74077865 1550.25101829 1839.48067999 1539.60835838 1847.25447559 C1538.45730822 1848.11253711 1537.30626661 1848.9706101 1536.15523338 1849.82869434 C1527.96559857 1855.86624956 1519.46297563 1861.24904861 1510.60835838 1866.25447559 C1509.90114647 1866.65666309 1509.19393456 1867.05885059 1508.46529198 1867.47322559 C1485.32990003 1880.4986497 1460.15873429 1889.2474902 1434.17085838 1894.56697559 C1433.45196434 1894.71433155 1432.7330703 1894.86168751 1431.99239159 1895.0135088 C1415.71960281 1898.10644393 1399.72521727 1898.54250776 1383.21671677 1898.50895119 C1380.76168979 1898.51134418 1378.30666353 1898.51461138 1375.85163873 1898.51866779 C1370.5199566 1898.52547399 1365.18832732 1898.52613471 1359.85664694 1898.5212783 C1351.87484127 1898.51404405 1343.89306981 1898.51841873 1335.91126503 1898.52495965 C1322.30411147 1898.53577086 1308.69697178 1898.53712252 1295.08981514 1898.5332613 C1281.30634264 1898.52938132 1267.52288046 1898.52984594 1253.73940849 1898.5355711 C1252.86779649 1898.53592992 1251.99618449 1898.53628875 1251.09816001 1898.53665845 C1247.54802223 1898.53813341 1243.99788446 1898.53963781 1240.4477467 1898.54117992 C1204.43279381 1898.55680543 1168.41784802 1898.55949489 1132.40289235 1898.55702385 C1127.42847061 1898.5566854 1122.45404887 1898.5563633 1117.47962713 1898.55605817 C1116.49154949 1898.55599712 1115.50347185 1898.55593608 1114.48545246 1898.55587319 C1092.57765563 1898.5546007 1070.66985977 1898.55720376 1048.76206323 1898.56058424 C1043.75808036 1898.56135498 1038.75409749 1898.56209971 1033.75011463 1898.56284925 C1031.74177302 1898.56315094 1029.73343141 1898.56345282 1027.7250898 1898.56375489 C1026.23182825 1898.56397941 1026.23182825 1898.56397941 1024.70839981 1898.56420847 C1022.69474263 1898.564512 1020.68108546 1898.56481668 1018.66742828 1898.56512251 C961.53660528 1898.57379465 904.40578314 1898.5784401 847.27495956 1898.57417488 C846.21725908 1898.57409682 845.15955859 1898.57401877 844.06980657 1898.57393835 C832.27561165 1898.57306556 820.48141673 1898.5721363 808.68722181 1898.57118771 C807.62240186 1898.5711022 806.5575819 1898.57101669 805.46049468 1898.57092859 C796.61330961 1898.57021784 796.61330961 1898.57021784 792.5418635 1898.56988637 C724.43658172 1898.56435093 656.3313135 1898.57189213 588.22603416 1898.59065723 C571.06582899 1898.59537955 553.9056238 1898.6000601 536.74541855 1898.60449409 C535.68875935 1898.60476742 534.63210015 1898.60504074 533.54342098 1898.60532234 C500.97012975 1898.61369524 468.39683966 1898.61837345 435.82354736 1898.61920166 C434.28928038 1898.61924121 434.28928038 1898.61924121 432.72401811 1898.61928156 C410.26887346 1898.61982237 387.81372891 1898.61944981 365.35858429 1898.61824184 C357.32353289 1898.61781623 349.2884815 1898.6174511 341.2534301 1898.6171124 C339.2545627 1898.6170271 337.2556953 1898.61693817 335.2568279 1898.61684558 C303.42538799 1898.61539767 271.59395731 1898.62251754 239.76251961 1898.63384954 C206.80568251 1898.64550622 173.84886186 1898.646056 140.89202468 1898.63400612 C137.34992135 1898.63275433 133.80781801 1898.63155084 130.26571465 1898.6303854 C129.39644177 1898.6300951 128.5271689 1898.62980481 127.63155443 1898.62950572 C113.89019626 1898.62518726 100.14886152 1898.63089905 86.40750703 1898.64082559 C72.88211968 1898.65038358 59.35676835 1898.6491599 45.83138308 1898.63661937 C37.91142198 1898.62959322 29.99156472 1898.63064551 22.07161113 1898.64396775 C16.17574288 1898.65295678 10.27995897 1898.64612241 4.38409548 1898.63337817 C2.02565358 1898.63066657 -0.33280101 1898.63289248 -2.69123093 1898.64088532 C-21.98619617 1898.70177427 -41.06221812 1897.33585252 -59.82914162 1892.56697559 C-60.85225441 1892.31278858 -61.8753672 1892.05860157 -62.92948341 1891.79671192 C-106.53989096 1880.64118236 -145.9290459 1859.52059278 -178.39164162 1828.25447559 C-179.05099709 1827.62235157 -179.71035255 1826.99022755 -180.38968849 1826.33894825 C-189.87794467 1817.19450081 -198.61784602 1807.8971355 -206.39164162 1797.25447559 C-207.24970313 1796.10342543 -208.10777613 1794.95238382 -208.96586037 1793.80135059 C-215.00341558 1785.61171578 -220.38621463 1777.10909284 -225.39164162 1768.25447559 C-225.99492287 1767.19365772 -225.99492287 1767.19365772 -226.61039162 1766.11140919 C-239.63581572 1742.97601724 -248.38465623 1717.8048515 -253.70414162 1691.81697559 C-253.85149757 1691.09808155 -253.99885353 1690.37918751 -254.15067482 1689.6385088 C-257.24360995 1673.36572002 -257.67967378 1657.37133448 -257.64611721 1640.86283398 C-257.6485102 1638.407807 -257.6517774 1635.95278074 -257.65583381 1633.49775594 C-257.66264001 1628.16607381 -257.66330073 1622.83444453 -257.65844432 1617.50276415 C-257.65121007 1609.52095848 -257.65558475 1601.53918702 -257.66212567 1593.55738224 C-257.67293688 1579.95022868 -257.67428854 1566.34308899 -257.67042732 1552.73593235 C-257.66654735 1538.95245985 -257.66701197 1525.16899767 -257.67273712 1511.3855257 C-257.67309595 1510.5139137 -257.67345477 1509.6423017 -257.67382447 1508.74427722 C-257.67529944 1505.19413944 -257.67680384 1501.64400167 -257.67834594 1498.09386391 C-257.69397146 1462.07891103 -257.69666092 1426.06396523 -257.69418988 1390.04900956 C-257.69385142 1385.07458782 -257.69352932 1380.10016608 -257.69322419 1375.12574434 C-257.69316315 1374.1376667 -257.6931021 1373.14958906 -257.69303921 1372.13156968 C-257.69176673 1350.22377284 -257.69436978 1328.31597698 -257.69775026 1306.40818044 C-257.698521 1301.40419757 -257.69926574 1296.40021471 -257.70001527 1291.39623184 C-257.70031697 1289.38789023 -257.70061885 1287.37954862 -257.70092092 1285.37120701 C-257.7010706 1284.37569931 -257.70122028 1283.38019162 -257.70137449 1282.35451702 C-257.70167802 1280.34085984 -257.7019827 1278.32720267 -257.70228854 1276.31354549 C-257.71096068 1219.18272249 -257.71560612 1162.05190035 -257.7113409 1104.92107677 C-257.71126285 1103.86337629 -257.71118479 1102.8056758 -257.71110437 1101.71592379 C-257.71023159 1089.92172886 -257.70930232 1078.12753394 -257.70835374 1066.33333902 C-257.70826823 1065.26851907 -257.70818272 1064.20369911 -257.70809462 1063.10661189 C-257.70738387 1054.25942679 -257.70738387 1054.25942679 -257.70705239 1050.18798071 C-257.70151695 982.08269893 -257.70905816 913.97743071 -257.72782326 845.87215137 C-257.73254557 828.7119462 -257.73722613 811.55174101 -257.74166012 794.39153576 C-257.74193344 793.33487656 -257.74220676 792.27821736 -257.74248837 791.18953819 C-257.75086127 758.61624696 -257.75553948 726.04295687 -257.75636768 693.46966457 C-257.75639405 692.44681992 -257.75642042 691.42397527 -257.75644758 690.37013532 C-257.7569884 667.91499067 -257.75661584 645.45984612 -257.75540787 623.0047015 C-257.75498225 614.9696501 -257.75461712 606.93459871 -257.75427843 598.89954731 C-257.75419312 596.90067991 -257.75410419 594.90181251 -257.75401161 592.90294511 C-257.75256369 561.0715052 -257.75968356 529.24007452 -257.77101557 497.40863682 C-257.78267224 464.45179972 -257.78322202 431.49497907 -257.77117214 398.53814189 C-257.76992035 394.99603856 -257.76871686 391.45393522 -257.76755142 387.91183186 C-257.76726113 387.04255898 -257.76697083 386.17328611 -257.76667174 385.27767164 C-257.76235328 371.53631347 -257.76806507 357.79497873 -257.77799161 344.05362424 C-257.7875496 330.52823689 -257.78632592 317.00288556 -257.77378539 303.47750029 C-257.76675924 295.55753919 -257.76781153 287.63768193 -257.78113377 279.71772834 C-257.79012281 273.82186009 -257.78328844 267.92607618 -257.7705442 262.03021269 C-257.7678326 259.67177079 -257.7700585 257.3133162 -257.77805134 254.95488628 C-257.8389403 235.65992104 -256.47301854 216.58389909 -251.70414162 197.81697559 C-251.44995461 196.7938628 -251.19576759 195.77075001 -250.93387794 194.7166338 C-239.77834838 151.10622625 -218.6577588 111.71707131 -187.39164162 79.25447559 C-186.75951759 78.59512012 -186.12739357 77.93576466 -185.47611427 77.25642872 C-176.33166683 67.76817254 -167.03430152 59.02827119 -156.39164162 51.25447559 C-155.24059145 50.39641408 -154.08954984 49.53834108 -152.93851662 48.68025684 C-144.74888181 42.64270163 -136.24625886 37.25990258 -127.39164162 32.25447559 C-126.6844297 31.85228809 -125.97721779 31.45010059 -125.24857521 31.03572559 C-102.11318326 18.01030149 -76.94201752 9.26146098 -50.95414162 3.94197559 C-50.23524757 3.79461964 -49.51635353 3.64726368 -48.77567482 3.49544239 C-32.50288605 0.40250726 -16.5085005 -0.03355657 0 0 Z M29.60835838 311.25447559 C25.97976884 315.38383066 22.76771306 319.75528987 19.60835838 324.25447559 C18.83878807 325.30635059 18.06921776 326.35822559 17.27632713 327.44197559 C2.36372432 348.342674 -8.10488729 372.15023822 -14.64164162 396.87947559 C-14.87625099 397.74145557 -15.11086037 398.60343555 -15.35257912 399.49153614 C-21.7723389 425.36658087 -20.8228901 452.11301827 -20.77084292 478.553461 C-20.76226478 484.61751309 -20.77124722 490.68154491 -20.77790707 496.74559593 C-20.78716923 507.35415821 -20.78547383 517.96266727 -20.77617455 528.57122517 C-20.76626053 539.94216869 -20.76295532 551.31308617 -20.76755142 562.68403339 C-20.76783846 563.40479645 -20.7681255 564.1255595 -20.76842123 564.86816386 C-20.7696128 567.80414822 -20.77085196 570.74013255 -20.77215114 573.67611687 C-20.78422215 600.95882486 -20.78173795 628.24151305 -20.76996231 655.52422047 C-20.75863766 681.80117975 -20.7526762 708.07813022 -20.75415039 734.35509205 C-20.75423579 736.00725092 -20.75432067 737.65940979 -20.75440503 739.31156866 C-20.75475288 745.95119631 -20.75513798 752.59082396 -20.75557061 759.2304516 C-20.756765 777.78790317 -20.75694722 796.34535468 -20.75636768 814.90280628 C-20.75634166 815.74772036 -20.75631563 816.59263444 -20.75628882 817.46315198 C-20.75539068 844.3695823 -20.75009663 871.27600987 -20.74166012 898.18243885 C-20.74138693 899.05465305 -20.74111374 899.92686724 -20.74083228 900.82551217 C-20.73637887 914.98874237 -20.73166398 929.15197249 -20.72693339 943.3152026 C-20.70817567 999.52478151 -20.70177323 1055.73434697 -20.70731544 1111.94392872 C-20.70766243 1115.49844595 -20.70800804 1119.05296318 -20.70835374 1122.60748041 C-20.70843934 1123.4863261 -20.70852494 1124.3651718 -20.70861314 1125.27064919 C-20.70955927 1135.00363588 -20.71047099 1144.73662257 -20.7113409 1154.46960926 C-20.71141982 1155.34243829 -20.71149874 1156.21526733 -20.71158005 1157.11454572 C-20.71580105 1204.21885941 -20.71049975 1251.32317158 -20.70182961 1298.42748451 C-20.70152633 1300.08768595 -20.70122343 1301.74788739 -20.70092092 1303.40808883 C-20.70077132 1304.22876824 -20.70062173 1305.04944765 -20.70046761 1305.89499613 C-20.70016619 1307.55068504 -20.6998652 1309.20637396 -20.69956464 1310.86206287 C-20.6988158 1314.98676445 -20.69805981 1319.11146603 -20.69728847 1323.2361676 C-20.69393958 1341.31912269 -20.69187123 1359.40207668 -20.69322419 1377.48503208 C-20.69328473 1378.29998099 -20.69334527 1379.11492989 -20.69340765 1379.95457422 C-20.69371962 1384.05768679 -20.69405304 1388.16079935 -20.69439397 1392.26391192 C-20.69684331 1421.90044229 -20.69279759 1451.53695958 -20.67718396 1481.17348635 C-20.67567401 1484.09143582 -20.67419398 1487.00938529 -20.67273712 1489.92733479 C-20.67237638 1490.64345041 -20.67201564 1491.35956604 -20.67164397 1492.09738214 C-20.66610326 1503.44537437 -20.66724495 1514.79335566 -20.67114196 1526.14134815 C-20.67482745 1537.29384081 -20.67120521 1548.4463124 -20.66027774 1559.59880202 C-20.65463103 1565.5665139 -20.65217691 1571.53418112 -20.65844432 1577.5018934 C-20.66407358 1582.92712038 -20.66055798 1588.35226044 -20.64964555 1593.77747867 C-20.64733204 1595.73123094 -20.64838753 1597.68499075 -20.65316809 1599.63873854 C-20.65916327 1602.2880766 -20.65284832 1604.93711523 -20.64349061 1607.58643723 C-20.64815396 1608.34014133 -20.65281731 1609.09384543 -20.65762197 1609.87038906 C-20.55892308 1623.90609118 -15.27966608 1637.2483348 -5.39164162 1647.25447559 C2.98045969 1654.58328427 14.13705481 1661.37807609 25.61737857 1661.3800921 C26.41219825 1661.3826562 27.20701792 1661.38522031 28.02592304 1661.38786211 C28.8955867 1661.38558951 29.76525036 1661.3833169 30.66126746 1661.38097543 C32.05889121 1661.38326525 32.05889121 1661.38326525 33.48474979 1661.38560133 C36.63658785 1661.3895275 39.78837867 1661.38627473 42.94021702 1661.38311005 C45.22060746 1661.38445549 47.50099768 1661.38623868 49.78138748 1661.38842228 C56.0943934 1661.39317673 62.40738499 1661.39164276 68.72039164 1661.38914451 C74.86523174 1661.3871973 81.0100698 1661.39091696 87.15490901 1661.39401504 C99.88247551 1661.40025959 112.61003862 1661.40171956 125.33760643 1661.40059757 C138.24123112 1661.39947437 151.14485292 1661.40050282 164.04847717 1661.40417004 C165.26961428 1661.40451452 165.26961428 1661.40451452 166.51542083 1661.40486595 C169.83093318 1661.40580756 173.14644553 1661.40676324 176.46195787 1661.40773715 C211.07824241 1661.41789049 245.69452533 1661.42094346 280.31081118 1661.42152926 C284.03881329 1661.421594 287.76681539 1661.42166194 291.4948175 1661.42173266 C292.4198925 1661.42174967 293.3449675 1661.42176667 294.29807507 1661.42178419 C314.78331154 1661.42219238 335.2685477 1661.42438141 355.75378401 1661.42688851 C364.18475849 1661.42791684 372.61573297 1661.42890686 381.04670745 1661.42990476 C381.97821604 1661.43001535 382.90972462 1661.43012594 383.86946074 1661.43023988 C437.26260126 1661.43656556 490.65574157 1661.44068882 544.04888248 1661.44023132 C546.04778175 1661.44021554 548.04668102 1661.44019981 550.04558029 1661.44018411 C559.07076628 1661.44011073 568.09595226 1661.44002256 577.12113824 1661.43993023 C581.14582834 1661.43988911 585.17051844 1661.43984896 589.19520854 1661.43980892 C591.20964056 1661.43978852 593.22407258 1661.4397675 595.2385046 1661.43974586 C658.94178831 1661.43906556 722.64506646 1661.44638316 786.34834862 1661.46028614 C802.39827123 1661.46378705 818.44819384 1661.46725646 834.49811649 1661.47055054 C835.98042633 1661.47085485 835.98042633 1661.47085485 837.49268183 1661.47116531 C867.94163752 1661.4773786 898.39059276 1661.48114554 928.83954906 1661.48240852 C930.27315466 1661.48246845 930.27315466 1661.48246845 931.73572199 1661.48252959 C952.71476228 1661.48338279 973.69380255 1661.48364408 994.67284286 1661.48335921 C1002.17924797 1661.48326272 1009.68565308 1661.48321068 1017.1920582 1661.48318048 C1019.05952351 1661.48317257 1020.92698882 1661.48316236 1022.79445412 1661.48314986 C1052.57230254 1661.48297341 1082.35014621 1661.48867667 1112.12799327 1661.49730367 C1142.11451248 1661.50594697 1172.10102511 1661.50815058 1202.08754505 1661.50154235 C1206.22877478 1661.50063002 1210.37000453 1661.49978675 1214.51123428 1661.49898434 C1215.32304953 1661.49882425 1216.13486477 1661.49866416 1216.97128048 1661.49849922 C1229.83955686 1661.49614375 1242.70782187 1661.50050949 1255.57609611 1661.50765552 C1268.2214325 1661.51453771 1280.86675206 1661.51431231 1293.51208807 1661.50646339 C1300.27990002 1661.50245784 1307.0476691 1661.50187179 1313.81547876 1661.50992074 C1319.96695378 1661.51717295 1326.11835442 1661.51529461 1332.26982606 1661.50599687 C1334.48653002 1661.50426923 1336.70323973 1661.50592438 1338.91993785 1661.51129808 C1341.92295064 1661.51809292 1344.92570091 1661.5125976 1347.92870349 1661.50402325 C1349.21526841 1661.51137268 1349.21526841 1661.51137268 1350.52782454 1661.51887059 C1364.86553806 1661.43339988 1378.33836021 1656.40324276 1388.60835838 1646.25447559 C1398.61427054 1634.82417173 1402.77866512 1622.88139095 1402.73600888 1607.81099546 C1402.73765966 1606.98176133 1402.73931044 1606.15252719 1402.74101124 1605.29816475 C1402.74533212 1602.51383134 1402.74253619 1599.72955093 1402.73978615 1596.94521618 C1402.74143597 1594.92248023 1402.74352234 1592.8997446 1402.74600625 1590.87700951 C1402.75158026 1585.29329532 1402.75089914 1579.70959645 1402.74922866 1574.12588037 C1402.74849861 1568.06056258 1402.75351804 1561.99524914 1402.75780368 1555.92993319 C1402.76450753 1545.29088689 1402.76748154 1534.65184527 1402.76793861 1524.01279736 C1402.76844093 1512.59558743 1402.77108713 1501.17838105 1402.77634621 1489.76117229 C1402.77667634 1489.04030164 1402.77700647 1488.31943099 1402.77734661 1487.57671578 C1402.77869661 1484.6407393 1402.78005927 1481.70476284 1402.78143872 1478.76878638 C1402.79774437 1444.00233986 1402.80412795 1409.23589402 1402.80888659 1374.46944432 C1402.81126976 1357.15575614 1402.81497326 1339.84206835 1402.81892368 1322.52838046 C1402.83158915 1266.9877186 1402.8423724 1211.44705675 1402.84576414 1155.90639347 C1402.84592638 1153.25158361 1402.84609194 1150.59677375 1402.84625853 1147.94196389 C1402.84659232 1142.61771641 1402.8469228 1137.29346894 1402.84725308 1131.96922147 C1402.84763998 1125.7358454 1402.84802959 1119.50246934 1402.84842415 1113.26909327 C1402.84853657 1111.48505123 1402.84864799 1109.70100919 1402.8487584 1107.91696715 C1402.85230694 1050.63406241 1402.86738111 993.35117022 1402.89069615 936.06827027 C1402.90744176 894.90915593 1402.92291458 853.75004396 1402.92743111 812.59092617 C1402.92752459 811.74413887 1402.92761808 810.89735156 1402.9277144 810.02490403 C1402.92973364 791.43396554 1402.93088952 772.84302708 1402.93124298 754.25208848 C1402.93137915 747.59941892 1402.93158814 740.94674937 1402.93183624 734.29407981 C1402.9318978 732.63908315 1402.93195612 730.98408649 1402.93201118 729.32908983 C1402.93293037 702.97562242 1402.94289106 676.62216813 1402.95746867 650.26870504 C1402.97209808 623.71525364 1402.97711823 597.1618183 1402.96904913 570.60836358 C1402.96793383 566.934707 1402.96692315 563.26105039 1402.96597481 559.58739376 C1402.96578484 558.86729046 1402.96559487 558.14718716 1402.96539915 557.40526254 C1402.96267111 546.02730036 1402.96998943 534.649368 1402.98154818 523.2714123 C1402.99271804 512.06876489 1402.99284183 500.86615895 1402.98217799 489.66350728 C1402.97678719 483.67688045 1402.97607205 477.69035677 1402.98868671 471.7037385 C1403.00008847 466.24706624 1402.99743273 460.79058034 1402.98401964 455.33391431 C1402.98160339 453.38220445 1402.98410609 451.43047994 1402.99241611 449.47878627 C1403.06235341 431.88279388 1401.10816294 414.7310283 1396.85835838 397.62947559 C1396.47321068 396.06302296 1396.47321068 396.06302296 1396.08028221 394.46492481 C1388.82735912 365.92003711 1375.39991459 338.95489649 1356.60835838 316.25447559 C1356.13253319 315.67713673 1355.65670799 315.09979786 1355.16646385 314.50496387 C1345.57939816 302.93867329 1335.44537868 292.55840541 1323.60835838 283.25447559 C1322.59902245 282.43978809 1321.58968651 281.62510059 1320.54976463 280.78572559 C1294.43465421 259.92430395 1262.23845421 246.71566675 1229.60835838 240.25447559 C1228.86553612 240.10349415 1228.12271385 239.9525127 1227.35738182 239.79695606 C1176.15345286 229.80410508 1120.10391266 242.48458096 1076.97945213 271.30135059 C1059.30619401 283.41927741 1042.77492055 297.28254865 1029.60835838 314.25447559 C1028.55841698 315.47070606 1028.55841698 315.47070606 1027.48726463 316.71150684 C1016.32286012 329.66699229 1007.67342631 344.72805251 1000.60835838 360.25447559 C1000.26820702 360.99665333 999.92805565 361.73883106 999.57759666 362.50349903 C994.78601749 373.07634272 990.98790042 383.65857516 988.18916893 394.92512989 C987.76012167 396.64582763 987.3166938 398.36295438 986.86543846 400.07796192 C980.58829296 424.25148447 981.60835838 448.11308629 981.60835838 473.25447559 C789.87835838 473.25447559 598.14835838 473.25447559 400.60835838 473.25447559 C400.60835838 459.06447559 400.60835838 444.87447559 400.60835838 430.25447559 C396.76876876 386.7391265 379.89076337 344.06113463 350.60835838 311.25447559 C350.17958397 310.77220509 349.75080956 310.28993458 349.30904198 309.79304981 C346.12845413 306.22885081 342.88425643 302.73123162 339.60835838 299.25447559 C338.51587791 298.08078419 338.51587791 298.08078419 337.40132713 296.88338184 C331.04465721 290.267256 323.92122236 284.75734173 316.60835838 279.25447559 C316.04487694 278.82489552 315.48139549 278.39531544 314.90083885 277.95271778 C288.51851554 257.9289737 256.25102443 244.56469653 223.60835838 239.25447559 C222.91742088 239.13878223 222.22648338 239.02308887 221.51460838 238.90388966 C147.90776781 227.15885875 79.14192263 258.23720467 29.60835838 311.25447559 Z " fill="#FEFEFE" transform="translate(260.3916416168213,2.7455244064331055)"/>
<path d="M0 0 C385.77 0 771.54 0 1169 0 C1169 230.34 1169 460.68 1169 698 C783.23 698 397.46 698 0 698 C0 467.66 0 237.32 0 0 Z " fill="#FEFEFE" transform="translate(367,839)"/>
<path d="M0 0 C2.46455488 -0.00271643 4.92910894 -0.00628099 7.3936615 -0.01062012 C13.34580457 -0.01873343 19.2979011 -0.01762871 25.2500428 -0.01179484 C30.09496782 -0.00724605 34.93987874 -0.0066792 39.7848053 -0.00884247 C40.47891165 -0.00914893 41.173018 -0.0094554 41.88815787 -0.00977115 C43.29898084 -0.01041072 44.70980379 -0.01105914 46.12062675 -0.01171634 C59.29642029 -0.0173959 72.47218584 -0.01089924 85.64797479 -0.0001156 C96.9110011 0.00881774 108.17398615 0.00726502 119.43701172 -0.00195312 C132.57122776 -0.01269797 145.70541936 -0.0168468 158.83963919 -0.0107286 C160.24477227 -0.01009162 161.64990536 -0.00946287 163.05503845 -0.00884247 C164.09160085 -0.00837964 164.09160085 -0.00837964 165.14910391 -0.00790747 C169.97848276 -0.00619311 174.80784588 -0.00906816 179.63722229 -0.01380157 C186.15779845 -0.02005317 192.67831559 -0.01549326 199.19888496 -0.00401306 C201.57750382 -0.00139135 203.95612927 -0.00208839 206.33474541 -0.00653839 C254.78479706 -0.08875356 299.86661373 12.57127855 336.91992188 45.25878906 C337.41717773 45.69578125 337.91443359 46.13277344 338.42675781 46.58300781 C344.68387021 52.10876941 350.68821694 57.73073246 355.91992188 64.25878906 C357.07234375 65.68964844 357.07234375 65.68964844 358.24804688 67.14941406 C388.13544476 104.83352444 403.15099106 151.47514352 398.59912109 199.65429688 C397.04036982 212.57507595 394.48088351 225.06209307 389.91992188 237.25878906 C389.64164551 238.02465332 389.36336914 238.79051758 389.07666016 239.57958984 C371.92271671 286.40271184 337.04967144 323.93318243 292.04492188 345.38378906 C269.33348861 355.86933584 245.68874774 362.42079169 220.59498596 362.39923096 C219.49728833 362.40220208 218.39959069 362.4051732 217.26862949 362.40823436 C213.61275359 362.41686364 209.95691065 362.4184247 206.30102539 362.41992188 C203.67031282 362.42455419 201.03960091 362.4295794 198.40888977 362.43496704 C191.27620396 362.44849474 184.1435238 362.45456652 177.0108273 362.4589777 C172.54783018 362.46174987 168.0848352 362.46598898 163.62183952 362.47048187 C151.23861229 362.48266784 138.85538676 362.4929681 126.47215366 362.49635696 C125.68102952 362.49657653 124.88990537 362.4967961 124.07480776 362.49702232 C123.28190653 362.49724059 122.4890053 362.49745887 121.67207676 362.49768376 C120.06564557 362.49812721 118.45921439 362.49857378 116.8527832 362.49902344 C116.05595613 362.49924487 115.25912905 362.4994663 114.4381557 362.49969444 C101.5444142 362.50363733 88.65072939 362.5210788 75.75700975 362.54438296 C62.48460354 362.56817573 49.21222568 362.58056242 35.93979782 362.58172488 C28.50184692 362.58263726 21.06396989 362.5882784 13.62603951 362.60654449 C7.28915672 362.62205301 0.95237063 362.62700337 -5.38452756 362.61880639 C-8.609233 362.61493732 -11.83370655 362.61732304 -15.05839539 362.62986374 C-33.67903278 362.69797906 -51.22266107 361.5141366 -69.14257812 356.07128906 C-70.65489014 355.61846558 -70.65489014 355.61846558 -72.19775391 355.15649414 C-92.73478359 348.80924705 -112.34828502 338.77942996 -129.08007812 325.25878906 C-129.94246094 324.59878906 -130.80484375 323.93878906 -131.69335938 323.25878906 C-152.2623212 307.16929004 -167.88434432 287.22114859 -180.08007812 264.25878906 C-180.42264648 263.6176416 -180.76521484 262.97649414 -181.11816406 262.31591797 C-191.77744907 241.99563308 -199.14390095 216.88924462 -199.28320312 193.86816406 C-199.29021744 193.08981201 -199.29723175 192.31145996 -199.30445862 191.50952148 C-199.32187718 189.00921791 -199.3283114 186.50915109 -199.33007812 184.00878906 C-199.33075287 183.15530884 -199.33142761 182.30182861 -199.3321228 181.42248535 C-199.31626091 168.81064874 -198.95316833 156.59281979 -196.08007812 144.25878906 C-195.91910645 143.52998535 -195.75813477 142.80118164 -195.59228516 142.05029297 C-186.61844371 102.49125512 -161.7486167 66.15945448 -130.08007812 41.25878906 C-129.14164063 40.515 -128.20320312 39.77121094 -127.23632812 39.00488281 C-106.39511449 22.89776206 -82.18174366 11.26127196 -56.64257812 4.94628906 C-55.679729 4.70378418 -54.71687988 4.4612793 -53.72485352 4.21142578 C-36.01708449 0.06882957 -18.08258106 -0.03382956 0 0 Z " fill="#020202" transform="translate(852.080078125,946.7412109375)"/>
<path d="M0 0 C191.73 0 383.46 0 581 0 C581 35.97 581 71.94 581 109 C389.27 109 197.54 109 0 109 C0 73.03 0 37.06 0 0 Z " fill="#FEFEFE" transform="translate(661,603)"/>
<path d="M0 0 C1.13655029 -0.01023193 2.27310059 -0.02046387 3.4440918 -0.03100586 C10.82135586 0.04581266 17.25848517 1.10071901 24.25 3.4375 C24.93271973 3.66171631 25.61543945 3.88593262 26.31884766 4.11694336 C50.50452898 12.47965406 66.0765088 29.03090712 77.64453125 51.3671875 C83.21455916 64.53868616 83.77583424 76.78793719 83.5 90.875 C83.47987763 92.68552682 83.46163713 94.49607558 83.4453125 96.30664062 C83.40183232 100.68414892 83.33313252 105.06057262 83.25 109.4375 C82.19288818 109.61128174 81.13577637 109.78506348 80.04663086 109.96411133 C69.05211108 111.83957181 69.05211108 111.83957181 58.8125 116.125 C58.1512915 116.47457764 57.49008301 116.82415527 56.80883789 117.18432617 C46.82934131 122.65007624 40.83953091 129.58709717 35.25 139.4375 C34.6725 140.406875 34.095 141.37625 33.5 142.375 C29.6752692 151.74559046 28.76349903 160.9221988 28.85888672 170.9831543 C28.87501457 173.00182321 28.85892185 175.01849947 28.83984375 177.03710938 C28.88884619 193.62443544 33.93411265 209.08358557 45.6796875 221.1875 C57.18773225 231.26141152 69.2751524 234.94001524 84.25 236.4375 C84.25 272.7375 84.25 309.0375 84.25 346.4375 C28.48 346.4375 -27.29 346.4375 -84.75 346.4375 C-84.87099405 280.45093167 -84.87099405 280.45093167 -84.89648438 252.81054688 C-84.90235713 246.48494442 -84.90841834 240.1593422 -84.91479492 233.83374023 C-84.91558617 233.04103476 -84.91637741 232.24832928 -84.91719264 231.43160242 C-84.93020621 218.66876809 -84.95383852 205.90597472 -84.98145839 193.1431646 C-85.00960897 180.02476145 -85.02619656 166.90637959 -85.03226548 153.78794748 C-85.03636201 145.70675638 -85.04925443 137.62568103 -85.0737494 129.5445256 C-85.09162694 123.32610561 -85.09334147 117.10777208 -85.08932304 110.88932991 C-85.09014244 108.35430061 -85.09602981 105.81926657 -85.10761642 103.28426361 C-85.23963696 72.88631887 -81.25953277 46.86367045 -59.53515625 24.03125 C-42.73154345 8.38244369 -22.9354767 0.1599319 0 0 Z " fill="#FDFDFD" transform="translate(450.75,366.5625)"/>
<path d="M0 0 C18.76874567 13.6645624 32.17714574 32.79672688 36.4375 55.9375 C37.40565577 62.35295551 37.57627581 68.5915463 37.55775452 75.07385254 C37.55903615 76.72569369 37.55903615 76.72569369 37.56034368 78.41090536 C37.56198681 82.08970882 37.55649622 85.76846638 37.55102539 89.44726562 C37.55074324 92.08880719 37.5508578 94.73034598 37.5514679 97.37188721 C37.55199121 103.0532122 37.54886452 108.73452568 37.54323006 114.41584778 C37.53508898 122.62999653 37.53249716 130.84413974 37.53124207 139.05829209 C37.52905564 152.3865208 37.52240666 165.71474337 37.51293945 179.04296875 C37.50375474 191.98697886 37.49669056 204.93098729 37.49243164 217.875 C37.49216364 218.68154683 37.49189565 219.48809366 37.49161953 220.31908131 C37.48954 226.62718834 37.48758311 232.9352954 37.48566496 239.24340248 C37.47623822 270.14144062 37.45611826 301.03946339 37.4375 331.9375 C-18.3325 331.9375 -74.1025 331.9375 -131.5625 331.9375 C-131.583125 313.973125 -131.60375 296.00875 -131.625 277.5 C-131.634104 271.8185376 -131.64320801 266.1370752 -131.65258789 260.28344727 C-131.65710449 253.36901855 -131.65710449 253.36901855 -131.65794373 250.13658142 C-131.65948372 247.86912337 -131.66300977 245.60166617 -131.66807556 243.33421326 C-131.6753495 239.90842252 -131.67640754 236.48268202 -131.67602539 233.05688477 C-131.6796235 232.03933137 -131.68322161 231.02177797 -131.68692875 229.97338963 C-131.68555125 229.05679034 -131.68417376 228.14019106 -131.68275452 227.19581604 C-131.68367631 226.39293435 -131.6845981 225.59005266 -131.68554783 224.76284122 C-131.5625 222.9375 -131.5625 222.9375 -130.5625 221.9375 C-129.04262412 221.85493129 -127.52137215 221.79761373 -126 221.75 C-114.29431666 220.75799294 -103.10731133 215.98593225 -94.5625 207.9375 C-93.94117188 207.39351562 -93.31984375 206.84953125 -92.6796875 206.2890625 C-82.57597265 196.97265011 -77.09763283 183.40826562 -76.40136719 169.78466797 C-76.35558878 166.12718589 -76.32724897 162.47024424 -76.3125 158.8125 C-76.291875 157.55695313 -76.27125 156.30140625 -76.25 155.0078125 C-76.18113836 138.41215683 -80.66326625 124.37104765 -92.10473633 112.10571289 C-96.93288335 107.24027036 -102.39550464 103.90324034 -108.5625 100.9375 C-109.23667969 100.60234375 -109.91085937 100.2671875 -110.60546875 99.921875 C-114.87558101 98.06451274 -119.22354505 97.49447122 -123.8203125 96.86328125 C-125.08246582 96.68837158 -126.34461914 96.51346191 -127.64501953 96.33325195 C-128.60778809 96.20265381 -129.57055664 96.07205566 -130.5625 95.9375 C-130.66295875 90.81874019 -130.73470033 85.7005801 -130.78222656 80.58105469 C-130.80208198 78.8472288 -130.82917573 77.11346745 -130.86425781 75.37988281 C-131.15370732 60.68606395 -129.94803949 46.80527279 -122.8125 33.625 C-122.46815918 32.96677246 -122.12381836 32.30854492 -121.76904297 31.63037109 C-113.32803465 15.89608591 -101.80252526 4.86151945 -86.5625 -4.0625 C-85.35013672 -4.80306641 -85.35013672 -4.80306641 -84.11328125 -5.55859375 C-57.7135041 -20.3479977 -24.62808023 -16.12341943 0 0 Z " fill="#FDFDFD" transform="translate(1499.5625,380.0625)"/>
<path d="M0 0 C1.54302911 -0.00467997 1.54302911 -0.00467997 3.11723053 -0.00945449 C6.55706365 -0.01741852 9.99671959 -0.01111692 13.43655396 -0.00482178 C15.90571191 -0.00753237 18.37486905 -0.01109369 20.84402466 -0.01544189 C26.85061299 -0.0236141 32.85713204 -0.02241879 38.86371766 -0.01661661 C43.74763118 -0.0120948 48.6315307 -0.01148947 53.51544571 -0.01366425 C54.55921185 -0.01412394 54.55921185 -0.01412394 55.62406418 -0.01459293 C57.03780587 -0.0152324 58.45154755 -0.01588083 59.86528923 -0.01653811 C73.11559883 -0.02223829 86.36588074 -0.01568886 99.6161858 -0.00493738 C110.97461667 0.00399391 122.33300664 0.00244897 133.69143677 -0.0067749 C146.89212375 -0.01748985 160.09278645 -0.02168485 173.29347718 -0.01555037 C174.70254969 -0.0149133 176.11162221 -0.01428456 177.52069473 -0.01366425 C178.2139192 -0.01335569 178.90714366 -0.01304714 179.62137493 -0.01272924 C184.49588915 -0.01100568 189.37038792 -0.01391017 194.24489975 -0.01862335 C200.81289155 -0.02483452 207.38081827 -0.02038078 213.94880676 -0.00883484 C216.35741676 -0.00619361 218.76603326 -0.00694416 221.17464066 -0.01136017 C224.46644915 -0.01683828 227.75801178 -0.00995374 231.04980469 0 C231.99933325 -0.00446144 232.94886181 -0.00892289 233.92716396 -0.01351953 C250.12488406 0.08124982 264.06482973 6.34814033 275.90579224 17.34771729 C287.4051809 29.39261774 290.24770485 42.71383032 289.96829224 58.73834229 C289.69659406 65.4364413 288.3832391 71.09045335 285.65188599 77.25396729 C285.30126099 78.05576416 284.95063599 78.85756104 284.58938599 79.68365479 C277.99861975 92.91095647 266.29926939 102.19122828 252.65188599 107.25396729 C246.33962633 109.13727635 240.65630118 109.54256246 234.08981323 109.52139282 C233.05013877 109.52592394 232.01046431 109.53045505 230.93928456 109.53512347 C227.46811387 109.547747 223.99710048 109.5461484 220.52590942 109.54449463 C218.03191426 109.55048115 215.53792094 109.55728698 213.04393005 109.56484985 C206.97966405 109.58067194 200.91545949 109.5869577 194.85117856 109.58807461 C189.91868629 109.58902689 184.98620679 109.59314612 180.05371857 109.59947586 C166.05069549 109.61707824 152.04770299 109.62631633 138.04466876 109.62481491 C136.91365682 109.62469504 136.91365682 109.62469504 135.75979614 109.62457275 C134.6273936 109.62445011 134.6273936 109.62445011 133.47211424 109.62432499 C121.24277533 109.62351243 109.01355969 109.64264522 96.78425643 109.67084949 C84.20915846 109.69962102 71.63412051 109.71338743 59.05898881 109.71166193 C52.00630118 109.71099949 44.95374277 109.71642749 37.9010849 109.73801804 C31.26572448 109.75820187 24.63058958 109.75751262 17.9951992 109.74298477 C15.56526732 109.74089776 13.13531831 109.74559108 10.70541573 109.75770569 C-12.79068016 109.86722549 -12.79068016 109.86722549 -22.34811401 105.25396729 C-23.48506714 104.73576416 -24.62202026 104.21756104 -25.79342651 103.68365479 C-40.46483795 95.17166973 -49.65152966 83.40533331 -54.43405151 67.19146729 C-57.9784279 53.42371623 -54.65161174 39.43835188 -48.14108276 27.14068604 C-39.93237181 13.92448255 -27.35796188 4.85109213 -12.44389701 0.6794591 C-8.33141841 -0.15546798 -4.18082264 -0.0195521 0 0 Z " fill="#FEFEFE" transform="translate(834.3481140136719,1073.7460327148438)"/>
</svg>
